<svg width="283.5" height="282.7" xmlns="http://www.w3.org/2000/svg"><g fill="#003066"><path d="M91.3 78H77.4v-3.5h13.9zM117 88.4h-5.6V78h-8.3v10.4h-5.5V64.2h5.5v10.4h8.3V64.2h5.6zm21.6-20.7h-5.5v20.7h-5.5V67.7H122v-3.5h16.6zm24.3 20.7h-5.6v-3.5h-2.7v-3.4h-2.8v3.4H149v3.5h-5.5V64.2h5.5v10.4h2.8v-3.5h2.8v3.5h2.7V64.2h5.6zm22.9 0h-8.3v-3.5h-2.8v-3.4h-2.8v6.9h-5.5V64.2h5.5v10.3l2.8.1V71h2.8v-3.4h2.7v-3.5h5.5v3.5h-2.6V71h-2.8v3.6l-2.7-.1v3.4h2.7v3.5h2.8v3.4h2.8v3.6zM206 78h-13.9v-3.5H206zM18.7 152.9H16v4.7H2.6v-4.7H0v-4.6h5.3v4.6h8v-9.3H2.6v-4.7H0v-9.4h2.6v-4.7h10.7v4.7H16v4.6h-5.3v-4.6H5.3v9.3H16v4.6h2.7zm22 4.8h-5.4v-14.1h-2.6v4.6h-2.6v-4.6h-2.7v14.1h-5.3v-32.9h5.3v4.7h2.7v4.6h2.7v-4.6h2.6v-4.7h5.4v32.9zm22.1 0h-5.4v-9.4h-7.8v9.4h-5.5v-23.6h2.6v-4.6h2.7v-4.7h8v4.7h2.7v4.6h2.7zm-5.3-14.1v-9.4h-2.6v-4.6h-2.8v4.6h-2.5v9.4zm27.4 14.1h-8V153h-2.7v-4.6h-2.7v9.4h-5.3v-32.9h16v4.7h2.7v14.1h-5.4v4.7h2.7v4.6h2.7zM79.5 139v-9.4h-8v14.1h5.4V139zm26.1-9.5h-5.3v28.1H95v-28.1h-5.4v-4.7h16zm45.5 18.8h-2.7v4.6h-2.7v4.7h-13.3v-32.9h13.3v4.7h2.7v4.6h2.7zm-5.4 0v-14.2h-2.6v-4.6h-5.4v23.4h5.4v-4.6zm27.4 9.4h-8V153h-2.7v-4.6h-2.7v9.4h-5.3v-32.9h16v4.7h2.7v14.1h-5.4v4.7h2.7v4.6h2.7zm-5.3-18.7v-9.4h-8v14.1h5.4V139zm26.2-9.5h-5.6v23.4h5.3v4.7h-16v-4.7h5.3v-23.4h-5.3v-4.7h16.2v4.7zm23.3 14.1h-2.7v4.7h-2.7v4.6h-2.6v4.8h-2.7v-4.8h-2.7v-4.6h-2.7v-4.7h-2.6v-18.8h5.3v14.1h2.7v4.6h2.7v-4.6h2.6v-14.1h5.4zm20.8-14.1h-5.6v23.4h5.3v4.7h-16v-4.7h5.3v-23.4h-5.3v-4.7h16.3zm23.3 28.2h-5.3v-4.8h-2.6v-4.6h-2.7v-4.7h-2.7v14.1h-5.3v-32.9h5.3v4.7h2.7v4.6h2.7v4.8h2.6v-14.1h5.4v32.9zm22.1 0h-13.4V153h-2.7v-4.6h-2.6v-14.2h2.6v-4.6h2.7v-4.7h13.3v4.7h-10.7v4.6h-2.6v14.2h2.7v4.6h5.3v-9.4h-2.6V139h8z"/><path d="M0 0v101.9h8.5V8.5H275v93.4h8.5V0zm0 180.9v101.8h283.5V180.9H275v93.301H8.5V180.9z"/><path d="M109.3 204.8h2.7v2.7h-2.7zm2.7-2.7h2.7v2.7H112zm2.7-2.7h2.7v2.7h-2.7zm2.7-2.7h2.7v2.7h-2.7zm2.7-2.7h2.7v2.7h-2.7zm13.6 0h37.8v-2.7h-48.7v2.7h8.1zm37.8 0h2.7v2.7h-2.7zm2.7 2.7h2.7v2.7h-2.7zm2.7 2.7h2.7v2.7h-2.7zm2.7 2.7h2.7v2.7h-2.7zm2.7 8.1h18.9v-2.7H185v-2.7h-2.7v2.7h-2.7v2.7zm27 2.7v-2.7h-8.1v2.7h5.4zm0 5.4v2.7h2.7v-8.1h-2.7v2.7zm-5.4 8.1h5.4v5.4h2.7v-8.1h-2.7V221h-2.7v2.7h-2.7zm-5.4 5.4v-2.7h-10.8v-2.7H185v10.8h10.8v-2.7h-8.1v-2.7h8.1v2.7h13.5v-2.7h-8.1zm2.7-5.4h-2.7v2.7h5.4v-2.7zm-18.9 10.8h2.7v2.7h-2.7zm0-13.5h2.7v2.7h-2.7zm-2.7 0h2.7V221h-10.8v2.7h5.4zm-10.8 0h2.7v2.7h-2.7zm0 8.1v-5.4h-2.7v2.7h-2.7v-2.7h-2.7v2.7h-18.9v-10.8h-2.7v10.8H112v-16.2h2.7v-5.4H112v2.7h-2.7v18.9h-5.4v-2.7h-2.7v10.8h67.5v-2.7zm-5.4 2.7h-59.5v-2.7H166v2.7zm5.4 2.7h2.7v2.7h-2.7zm2.7 2.7v2.7h10.8v-2.7h-8.1z"/><path d="M98.5 237.2h2.7v2.7h-2.7zm-10.8 2.7v2.7h10.8v-2.7h-8.1zm-2.7-2.7h2.7v2.7H85zm0-10.8h-8.1v-8.1h-2.7v-5.4h-2.7v18.9h2.7v-2.7h5.4v2.7h-5.4v2.7h8.1v2.7H85v-8.1zm0-2.7h2.7v2.7H85zm5.4-2.7h-2.7v2.7h10.8V221h-5.4zm8.1 2.7h2.7v2.7h-2.7zm64.9 0h2.7v2.7h-2.7zm2.7-2.7h2.7v2.7h-2.7zm8.1-10.8v-2.7h-2.7v2.7h-24.3v-10.8h16.2v-2.7h-40.5v2.7h16.2v10.8h-19v-8.1h-2.7v2.7h-2.7v2.7h2.7v5.4h-2.7v2.7h5.4v-2.7h21.6v5.4h2.7v-5.4h24.3v8.1h2.7v-8.1h8.1v-2.7h-2.7zm-32.4 0v-10.8h2.7v10.8z"/><path d="M168.8 204.8h2.7v2.7h-2.7zm-2.7-2.7h2.7v2.7h-2.7zm-2.7-2.7h2.7v2.7h-2.7zm-43.3 0h2.7v2.7h-2.7zm-21.6 10.8h10.8v-2.7H87.7v2.7h8.1zM85 212.9h2.7v-2.7H74.2v2.7h8.1zm89.2 13.5v2.7h-2.7v5.4h2.7v2.7h5.4v-2.7h2.7v-5.4h-2.7v-2.7h-2.7zm-83.8 0v2.7h-2.7v5.4h2.7v2.7h5.4v-2.7h2.7v-5.4h-2.7v-2.7h-2.7z"/></g></svg>
