<svg xmlns="http://www.w3.org/2000/svg" id="svg8" viewBox="0 0 52.101 18.25" height="68.976" width="196.915"><defs id="defs2"><style id="style815">.fc773e89-231f-4a85-990d-d11a624cbb5f{fill:#383431}.a075b03e-f69a-48ba-9dc0-ed3420509c9d{fill:#184c71}.a756f1db-694d-42e4-a819-932be39db06c{fill:#e67825}</style></defs><g transform="translate(-26.11 -90.571)" id="layer1"><g transform="matrix(.26458 0 0 .26458 17.776 83.66)" id="g944"><path class="fc773e89-231f-4a85-990d-d11a624cbb5f" d="M95.52 46.69v-3.47a18.19 18.19 0 0 0 3.54 1.19 13.17 13.17 0 0 0 2.16.19 3.85 3.85 0 0 0 2.65-.79 2.5 2.5 0 0 0 .87-1.91 2.56 2.56 0 0 0-.49-1.53 8.45 8.45 0 0 0-2.39-1.74l-1.37-.75a12.75 12.75 0 0 1-4-3 5.31 5.31 0 0 1 .7-7.11 7.07 7.07 0 0 1 5-1.63 24.78 24.78 0 0 1 5.51.7v3.24a15.27 15.27 0 0 0-5-1.17 3.58 3.58 0 0 0-2.33.67 2 2 0 0 0-.8 1.59 2.07 2.07 0 0 0 .49 1.33 8.85 8.85 0 0 0 2.38 1.68L104 35a13 13 0 0 1 4.28 3.25 5.67 5.67 0 0 1 .91 3.13 5.57 5.57 0 0 1-1.9 4.25c-1.26 1.18-3.28 1.77-6 1.77a28.05 28.05 0 0 1-5.77-.71z" id="path821" fill="#383431"/><path class="fc773e89-231f-4a85-990d-d11a624cbb5f" d="M112.09 46.87V26.64h13v2.78h-8.75v5.64h7.23v2.79h-7.23V44h9.39v2.87z" id="path823" fill="#383431"/><path class="fc773e89-231f-4a85-990d-d11a624cbb5f" d="M128.35 46.87V26.64h8.71a11 11 0 0 1 5.45 1.12 7.93 7.93 0 0 1 3.1 3.3 11.12 11.12 0 0 1 1.16 5.27 12.8 12.8 0 0 1-1.1 5.4 8.93 8.93 0 0 1-3.21 3.76 10.43 10.43 0 0 1-5.77 1.38zm4.21-2.87h3.15a7.51 7.51 0 0 0 3.76-.77 5.17 5.17 0 0 0 2.07-2.59 10.58 10.58 0 0 0 .76-4.07 9.3 9.3 0 0 0-.74-3.8 5.59 5.59 0 0 0-2.05-2.5 8.41 8.41 0 0 0-4.41-.86h-2.54z" id="path825" fill="#383431"/><path class="fc773e89-231f-4a85-990d-d11a624cbb5f" d="M150 46.87V26.64h13v2.78h-8.75v5.64h7.23v2.79h-7.23V44h9.39v2.87z" id="path827" fill="#383431"/><path class="fc773e89-231f-4a85-990d-d11a624cbb5f" d="M166.25 46.87V26.64H170l9.36 13.82V26.64h3.38v20.23h-3.78l-9.29-13.82v13.82z" id="path829" fill="#383431"/><path class="fc773e89-231f-4a85-990d-d11a624cbb5f" d="M187.21 46.87V26.64h4.21v20.23z" id="path831" fill="#383431"/><path class="fc773e89-231f-4a85-990d-d11a624cbb5f" d="M195.77 26.64H200V39q0 3.38 1.14 4.47a4.1 4.1 0 0 0 3 1.09 3.79 3.79 0 0 0 2.85-1.08c.71-.72 1.06-2.11 1.06-4.17V26.64h3.67v12.42a10.57 10.57 0 0 1-.89 5 6 6 0 0 1-2.55 2.4 9.07 9.07 0 0 1-4.22.88 10.47 10.47 0 0 1-4.32-.82 6.57 6.57 0 0 1-2.86-2.42 9.62 9.62 0 0 1-1-5.12z" id="path833" fill="#383431"/><path class="fc773e89-231f-4a85-990d-d11a624cbb5f" d="M214.86 46.69v-3.47a18 18 0 0 0 3.54 1.19 13.05 13.05 0 0 0 2.15.19 3.83 3.83 0 0 0 2.65-.79 2.5 2.5 0 0 0 .87-1.91 2.56 2.56 0 0 0-.49-1.53 8.29 8.29 0 0 0-2.39-1.74l-1.37-.75a12.75 12.75 0 0 1-4-3 5.31 5.31 0 0 1 .7-7.11 7.09 7.09 0 0 1 5-1.63 24.78 24.78 0 0 1 5.51.7v3.24a15.27 15.27 0 0 0-5-1.17 3.58 3.58 0 0 0-2.33.67 2 2 0 0 0-.8 1.59 2.12 2.12 0 0 0 .49 1.33 8.85 8.85 0 0 0 2.38 1.68l1.46.81a13 13 0 0 1 4.28 3.25 5.76 5.76 0 0 1-1 7.38q-1.89 1.77-6 1.77a28 28 0 0 1-5.65-.7z" id="path835" fill="#383431"/><path class="a075b03e-f69a-48ba-9dc0-ed3420509c9d" id="rect837" fill="#184c71" d="M59.5 53.13h20v20h-20z"/><path class="a756f1db-694d-42e4-a819-932be39db06c" id="rect839" fill="#e67825" d="M59.5 26.13h20v20h-20z"/><path class="a075b03e-f69a-48ba-9dc0-ed3420509c9d" id="rect841" fill="#184c71" d="M31.5 53.13h20v20h-20z"/><path class="fc773e89-231f-4a85-990d-d11a624cbb5f" d="M104.27 70.9a.78.78 0 0 0-.25-.26.61.61 0 0 0-.34-.1h-6.21v-5.28h5.21a.67.67 0 0 0 .33-.08.57.57 0 0 0 .25-.26 1 1 0 0 0 .12-.37 2.76 2.76 0 0 0 0-.44 3.13 3.13 0 0 0 0-.46 1 1 0 0 0-.12-.38.73.73 0 0 0-.26-.27.63.63 0 0 0-.35-.11h-5.18v-4.55h6.12a.64.64 0 0 0 .34-.09.6.6 0 0 0 .25-.29 1.31 1.31 0 0 0 .11-.35 3 3 0 0 0 0-.45 3.23 3.23 0 0 0 0-.48 1.53 1.53 0 0 0-.11-.36.68.68 0 0 0-.25-.3.67.67 0 0 0-.34-.09H95.8a1.21 1.21 0 0 0-.74.26 1.1 1.1 0 0 0-.38.93v14.65a1.1 1.1 0 0 0 .38.93 1.21 1.21 0 0 0 .74.26h7.88a.67.67 0 0 0 .34-.1.73.73 0 0 0 .25-.27 1.37 1.37 0 0 0 .13-.39v-.44-.47a1.19 1.19 0 0 0-.13-.39z" id="path843" fill="#383431"/><path class="fc773e89-231f-4a85-990d-d11a624cbb5f" d="M118.77 56a1.41 1.41 0 0 0-.43-.11 6 6 0 0 0-1.12 0 1.42 1.42 0 0 0-.42.11.62.62 0 0 0-.41.57v11.76l-.61-1.19-.64-1.25-.69-1.29-3.85-7.21a7.28 7.28 0 0 0-.42-.69 2.06 2.06 0 0 0-.46-.47 1.68 1.68 0 0 0-.56-.26 3 3 0 0 0-.71-.07h-1.08a1.31 1.31 0 0 0-.81.28 1.11 1.11 0 0 0-.4 1v15.15a.58.58 0 0 0 .1.33.68.68 0 0 0 .32.25l.42.09a4.45 4.45 0 0 0 .57 0 4.73 4.73 0 0 0 .58 0l.39-.09a.65.65 0 0 0 .33-.25.58.58 0 0 0 .1-.33v-9.92-1.89-.53c.06.11.11.23.17.34.27.53.53 1 .8 1.53l5 9.34a6.13 6.13 0 0 0 .51.85 2.82 2.82 0 0 0 .51.56 1.91 1.91 0 0 0 .6.31 2.67 2.67 0 0 0 .67.08h.72a1.55 1.55 0 0 0 .43-.07 1.21 1.21 0 0 0 .42-.22 1.31 1.31 0 0 0 .3-.39 1.4 1.4 0 0 0 .11-.56V56.6a.6.6 0 0 0-.11-.34.69.69 0 0 0-.33-.26z" id="path845" fill="#383431"/><path class="fc773e89-231f-4a85-990d-d11a624cbb5f" d="M134.28 57.25a3.7 3.7 0 0 0-.66-.47 5.54 5.54 0 0 0-1.14-.51 11.11 11.11 0 0 0-1.5-.4 9.72 9.72 0 0 0-1.83-.17 9.08 9.08 0 0 0-3.44.64 7.67 7.67 0 0 0-2.68 1.8A8 8 0 0 0 121.3 61a10.31 10.31 0 0 0-.61 3.65 10.45 10.45 0 0 0 .56 3.5 7.64 7.64 0 0 0 1.65 2.72 7.16 7.16 0 0 0 2.64 1.76 9.67 9.67 0 0 0 3.51.61 11.17 11.17 0 0 0 1.29-.08 9.59 9.59 0 0 0 1.3-.24 9.28 9.28 0 0 0 1.23-.38 8.57 8.57 0 0 0 1-.41 1.28 1.28 0 0 0 .62-.56 1.71 1.71 0 0 0 .14-.7v-6.31a1.6 1.6 0 0 0-.08-.51 1 1 0 0 0-.26-.4 1 1 0 0 0-.35-.21 1.07 1.07 0 0 0-.39-.07h-5.21a.61.61 0 0 0-.36.1.69.69 0 0 0-.23.27 1.15 1.15 0 0 0-.12.37v.46a1.76 1.76 0 0 0 .14.81.64.64 0 0 0 .59.38h3.51v4.3a6 6 0 0 1-1.23.45 6.15 6.15 0 0 1-3.71-.24 4.78 4.78 0 0 1-1.74-1.19 5.58 5.58 0 0 1-1.15-2 7.91 7.91 0 0 1-.42-2.69 8.17 8.17 0 0 1 .38-2.52 6 6 0 0 1 1.09-2 5.09 5.09 0 0 1 1.73-1.3 5.51 5.51 0 0 1 2.31-.46 6.56 6.56 0 0 1 1.89.23 8.3 8.3 0 0 1 2.3 1c.5.35.77.36 1 .2a.58.58 0 0 0 .24-.31 1.23 1.23 0 0 0 .1-.38 3.18 3.18 0 0 0 0-.47 2.64 2.64 0 0 0-.08-.7 1.15 1.15 0 0 0-.3-.43z" id="path847" fill="#383431"/><path class="fc773e89-231f-4a85-990d-d11a624cbb5f" d="M139.25 56a1.61 1.61 0 0 0-.39-.09 4.2 4.2 0 0 0-1.12 0 1.61 1.61 0 0 0-.39.09.63.63 0 0 0-.34.23.61.61 0 0 0-.11.35v15.75a.57.57 0 0 0 .1.34.6.6 0 0 0 .33.24l.4.09a4.39 4.39 0 0 0 .56 0 4.45 4.45 0 0 0 .57 0l.39-.09a.6.6 0 0 0 .33-.24.57.57 0 0 0 .1-.34V56.56a.6.6 0 0 0-.1-.35.64.64 0 0 0-.33-.21z" id="path849" fill="#383431"/><path class="fc773e89-231f-4a85-990d-d11a624cbb5f" d="M154.84 56a1.41 1.41 0 0 0-.43-.11 6 6 0 0 0-1.12 0 1.42 1.42 0 0 0-.42.11.67.67 0 0 0-.3.23.6.6 0 0 0-.11.34v11.79l-.61-1.19-.64-1.25-.69-1.29-3.85-7.21a6.19 6.19 0 0 0-.42-.69 2.29 2.29 0 0 0-.46-.47 1.68 1.68 0 0 0-.56-.26 3 3 0 0 0-.71-.07h-1.08a1.31 1.31 0 0 0-.81.28 1.11 1.11 0 0 0-.4 1v15.12a.56.56 0 0 0 .1.33.68.68 0 0 0 .32.25l.35.09a4.45 4.45 0 0 0 .57 0 4.73 4.73 0 0 0 .58 0l.39-.09a.61.61 0 0 0 .33-.25.56.56 0 0 0 .1-.33v-9.92-1.89-.53c.06.11.11.23.17.34.27.53.53 1 .8 1.53l5 9.34a7.3 7.3 0 0 0 .51.85 2.82 2.82 0 0 0 .51.56 1.91 1.91 0 0 0 .6.31 2.67 2.67 0 0 0 .67.08h.77a1.55 1.55 0 0 0 .43-.07 1.21 1.21 0 0 0 .42-.22 1.31 1.31 0 0 0 .3-.39 1.4 1.4 0 0 0 .11-.56V56.6a.59.59 0 0 0-.1-.34.73.73 0 0 0-.32-.26z" id="path851" fill="#383431"/><path class="fc773e89-231f-4a85-990d-d11a624cbb5f" d="M167.37 70.9a.81.81 0 0 0-.25-.27.64.64 0 0 0-.34-.09h-6.21v-5.28h5.21a.62.62 0 0 0 .33-.08.65.65 0 0 0 .26-.26 1.24 1.24 0 0 0 .11-.37 2.76 2.76 0 0 0 0-.44 3.13 3.13 0 0 0 0-.46 1.12 1.12 0 0 0-.12-.39.76.76 0 0 0-.22-.25.66.66 0 0 0-.36-.11h-5.21v-4.56h6.13a.62.62 0 0 0 .58-.38 1.31 1.31 0 0 0 .11-.35 2.89 2.89 0 0 0 0-.45 3.08 3.08 0 0 0 0-.48 2.28 2.28 0 0 0-.1-.36.7.7 0 0 0-.29-.32.63.63 0 0 0-.33-.09h-7.8a1.19 1.19 0 0 0-.73.26 1.07 1.07 0 0 0-.38.93v14.67a1.07 1.07 0 0 0 .38.93 1.19 1.19 0 0 0 .73.26h7.88a.65.65 0 0 0 .34-.1.75.75 0 0 0 .26-.27 1.12 1.12 0 0 0 .12-.39 2.94 2.94 0 0 0 0-.44 3 3 0 0 0 0-.47 1 1 0 0 0-.1-.39z" id="path853" fill="#383431"/><path class="fc773e89-231f-4a85-990d-d11a624cbb5f" d="M178.85 70.9a.93.93 0 0 0-.25-.27.69.69 0 0 0-.34-.09H172v-5.28h5.21a.62.62 0 0 0 .33-.08.59.59 0 0 0 .26-.26 1 1 0 0 0 .12-.37 2.76 2.76 0 0 0 0-.44 3.13 3.13 0 0 0 0-.46 1.12 1.12 0 0 0-.12-.39.79.79 0 0 0-.23-.25.66.66 0 0 0-.36-.11H172v-4.56h6.13a.67.67 0 0 0 .34-.09.66.66 0 0 0 .25-.29 1.34 1.34 0 0 0 .1-.35 2 2 0 0 0 0-.45 2.21 2.21 0 0 0 0-.48 1.55 1.55 0 0 0-.1-.36.68.68 0 0 0-.25-.3.67.67 0 0 0-.34-.09h-7.8a1.21 1.21 0 0 0-.73.26 1.1 1.1 0 0 0-.38.93v14.65a1.1 1.1 0 0 0 .38.93 1.21 1.21 0 0 0 .73.26h7.89a.67.67 0 0 0 .34-.1.73.73 0 0 0 .25-.27 1.12 1.12 0 0 0 .12-.39 2.94 2.94 0 0 0 0-.44 3 3 0 0 0 0-.47 1.12 1.12 0 0 0-.08-.39z" id="path855" fill="#383431"/><path class="fc773e89-231f-4a85-990d-d11a624cbb5f" d="M192 71.29l-1.47-3.62c-.17-.42-.35-.8-.52-1.14a6.06 6.06 0 0 0-.57-.92 3.69 3.69 0 0 0-.66-.7l-.23-.18a6.26 6.26 0 0 0 .77-.41 4.81 4.81 0 0 0 1.07-.93 3.86 3.86 0 0 0 .69-1.26 4.79 4.79 0 0 0 .24-1.57 5.05 5.05 0 0 0-.26-1.65 4 4 0 0 0-.81-1.36 4.18 4.18 0 0 0-1.31-1 6.77 6.77 0 0 0-1.78-.55H181.85a1.24 1.24 0 0 0-.74.26 1.09 1.09 0 0 0-.37.93v15.14a.57.57 0 0 0 .1.34.6.6 0 0 0 .33.24l.39.09a5.43 5.43 0 0 0 1.14 0l.39-.09a.67.67 0 0 0 .31-.23.55.55 0 0 0 .12-.35v-6.7h1.16a3.11 3.11 0 0 1 1.17.2 2.44 2.44 0 0 1 .82.56 3.67 3.67 0 0 1 .63.88c.18.35.36.75.54 1.18l1.51 3.86a1.26 1.26 0 0 0 .15.33.82.82 0 0 0 .32.26 1.58 1.58 0 0 0 .43.11h1.21a1.43 1.43 0 0 0 .44-.1.58.58 0 0 0 .32-.27.64.64 0 0 0 .07-.31 1.48 1.48 0 0 0-.06-.37c-.04-.13-.12-.35-.23-.67zm-3.59-10.5a2.86 2.86 0 0 1-.17 1 2 2 0 0 1-.54.77 2.58 2.58 0 0 1-.94.52 4.45 4.45 0 0 1-1.4.2h-1.83v-4.95h1.54a9.46 9.46 0 0 1 1 0 3.11 3.11 0 0 1 .66.12 2.17 2.17 0 0 1 1.28.83 2.7 2.7 0 0 1 .39 1.51z" id="path857" fill="#383431"/><path class="fc773e89-231f-4a85-990d-d11a624cbb5f" d="M196 56a1.7 1.7 0 0 0-.4-.09 4.13 4.13 0 0 0-1.11 0 1.7 1.7 0 0 0-.4.09.63.63 0 0 0-.34.23.61.61 0 0 0-.11.35v15.75a.57.57 0 0 0 .1.34.6.6 0 0 0 .33.24l.4.09a4.39 4.39 0 0 0 .56 0 4.45 4.45 0 0 0 .57 0l.4-.09a.61.61 0 0 0 .32-.24.57.57 0 0 0 .1-.34V56.56a.6.6 0 0 0-.1-.35.65.65 0 0 0-.32-.21z" id="path859" fill="#383431"/><path class="fc773e89-231f-4a85-990d-d11a624cbb5f" d="M211.57 56a1.42 1.42 0 0 0-.42-.11 6.09 6.09 0 0 0-1.13 0 1.42 1.42 0 0 0-.42.11.67.67 0 0 0-.3.23.6.6 0 0 0-.11.34v11.79l-.61-1.19c-.2-.41-.42-.83-.64-1.25l-.69-1.29-3.85-7.21a6.19 6.19 0 0 0-.42-.69 2.29 2.29 0 0 0-.46-.47A1.52 1.52 0 0 0 202 56a2.94 2.94 0 0 0-.71-.07h-1.07a1.27 1.27 0 0 0-.81.28 1.12 1.12 0 0 0-.41 1v15.12a.56.56 0 0 0 .1.33.68.68 0 0 0 .32.25l.39.09a4.45 4.45 0 0 0 .57 0 4.62 4.62 0 0 0 .58 0l.39-.09a.61.61 0 0 0 .33-.25.56.56 0 0 0 .1-.33v-9.92-1.89-.53c.06.11.11.23.17.34.27.53.54 1 .8 1.53l5 9.34a7.3 7.3 0 0 0 .51.85 3.15 3.15 0 0 0 .51.56 1.91 1.91 0 0 0 .6.31 2.73 2.73 0 0 0 .63.08h.73a1.54 1.54 0 0 0 .42-.07 1.21 1.21 0 0 0 .42-.22 1.31 1.31 0 0 0 .3-.39 1.25 1.25 0 0 0 .11-.56V56.6a.59.59 0 0 0-.1-.34.73.73 0 0 0-.31-.26z" id="path861" fill="#383431"/><path class="fc773e89-231f-4a85-990d-d11a624cbb5f" d="M217.87 59.93a5 5 0 0 1 1.72-1.3 5.54 5.54 0 0 1 2.31-.46 6.56 6.56 0 0 1 1.89.23 8.26 8.26 0 0 1 1.38.51 7.67 7.67 0 0 1 .92.51c.51.35.77.35 1 .2a.62.62 0 0 0 .23-.31 1.32 1.32 0 0 0 .1-.38 3.28 3.28 0 0 0 0-.47 2.2 2.2 0 0 0-.08-.7 1.07 1.07 0 0 0-.3-.51 3.36 3.36 0 0 0-.66-.47 5.54 5.54 0 0 0-1.14-.51 12.83 12.83 0 0 0-1.5-.4 9.72 9.72 0 0 0-1.74-.17 9.08 9.08 0 0 0-3.44.64 7.67 7.67 0 0 0-2.68 1.8A8.17 8.17 0 0 0 214.1 61a10.5 10.5 0 0 0-.61 3.65 10.2 10.2 0 0 0 .57 3.5 7.62 7.62 0 0 0 1.64 2.72 7.33 7.33 0 0 0 2.64 1.76 9.67 9.67 0 0 0 3.51.61 11.48 11.48 0 0 0 1.3-.08 9.74 9.74 0 0 0 1.29-.24 9.92 9.92 0 0 0 1.24-.38 9.12 9.12 0 0 0 1-.41 1.28 1.28 0 0 0 .62-.56 1.71 1.71 0 0 0 .14-.7v-6.31a1.6 1.6 0 0 0-.08-.51.93.93 0 0 0-.26-.4 1.13 1.13 0 0 0-.35-.21 1.06 1.06 0 0 0-.38-.07h-5.22a.65.65 0 0 0-.36.1.83.83 0 0 0-.23.26 1.29 1.29 0 0 0-.11.39 2.81 2.81 0 0 0 0 .45 1.76 1.76 0 0 0 .14.81.64.64 0 0 0 .59.38h3.51v4.3a6.12 6.12 0 0 1-1.22.45 6.19 6.19 0 0 1-3.72-.24 4.87 4.87 0 0 1-1.75-1.19 5.9 5.9 0 0 1-1.15-2 8.58 8.58 0 0 1 0-5.21 5.68 5.68 0 0 1 1.02-1.94z" id="path863" fill="#383431"/><path class="a756f1db-694d-42e4-a819-932be39db06c" d="M100.9 92.15a.19.19 0 0 1-.11.15.9.9 0 0 1-.34 0h-.3a.09.09 0 0 1-.06-.06.14.14 0 0 1 0-.09l.26-1.38a1.8 1.8 0 0 1-.36.54 3 3 0 0 1-.62.54 3.58 3.58 0 0 1-.8.42 2.59 2.59 0 0 1-.9.16 2.41 2.41 0 0 1-.8-.12 1.75 1.75 0 0 1-.55-.33 1.6 1.6 0 0 1-.36-.46 2.37 2.37 0 0 1-.2-.54 3.41 3.41 0 0 1-.1-.54 3.94 3.94 0 0 1 0-.47 5.69 5.69 0 0 1 .08-1 6.27 6.27 0 0 1 .26-1.03 7.83 7.83 0 0 1 .45-1.09 4.32 4.32 0 0 1 .68-.95 3.25 3.25 0 0 1 .93-.67 3 3 0 0 1 1.83-.18 2.17 2.17 0 0 1 .54.21 2.44 2.44 0 0 1 .45.32 2.79 2.79 0 0 1 .38.39l.81-4v-.08a.16.16 0 0 1 .08-.06h.73a.09.09 0 0 1 .06.06v.08zm.15-5.2a3.38 3.38 0 0 0-.88-.89 1.76 1.76 0 0 0-1-.31 1.58 1.58 0 0 0-.81.21 2.58 2.58 0 0 0-.64.56 3.57 3.57 0 0 0-.49.78 5.85 5.85 0 0 0-.34.91 6.33 6.33 0 0 0-.2.92 6.19 6.19 0 0 0-.06.81 2.37 2.37 0 0 0 .28 1.27 1 1 0 0 0 .93.45 1.9 1.9 0 0 0 .92-.25 3 3 0 0 0 .86-.68 4.3 4.3 0 0 0 .71-1 5 5 0 0 0 .46-1.34z" id="path865" fill="#e67825"/><path class="a756f1db-694d-42e4-a819-932be39db06c" d="M110.82 86.61a1.78 1.78 0 0 1-.24.92 1.93 1.93 0 0 1-.76.7 4.34 4.34 0 0 1-1.32.44 9.92 9.92 0 0 1-1.94.16h-.88c0 .19-.06.38-.08.56-.02.18 0 .36 0 .51a1.91 1.91 0 0 0 .41 1.3 1.71 1.71 0 0 0 1.33.46 4.49 4.49 0 0 0 .86-.08 6.6 6.6 0 0 0 .66-.15l.45-.16a.66.66 0 0 1 .23-.07.11.11 0 0 1 .09 0 .37.37 0 0 1 0 .12.53.53 0 0 1 0 .12v.16l-.06.16a.64.64 0 0 1-.1.13.93.93 0 0 1-.31.18 3.07 3.07 0 0 1-.53.15 6 6 0 0 1-.66.12 5.74 5.74 0 0 1-.71 0 4 4 0 0 1-1.15-.15 2.16 2.16 0 0 1-.81-.47 2.06 2.06 0 0 1-.48-.78 3.31 3.31 0 0 1-.16-1.1 5.61 5.61 0 0 1 .1-1 6 6 0 0 1 .29-1.11 5.79 5.79 0 0 1 .52-1.06 3.89 3.89 0 0 1 .77-.89 3.28 3.28 0 0 1 1-.62 3.35 3.35 0 0 1 1.3-.23 3 3 0 0 1 1 .15 2.11 2.11 0 0 1 .68.4 1.5 1.5 0 0 1 .5 1.08zm-1 .1a.81.81 0 0 0-.34-.69 1.53 1.53 0 0 0-1-.27 2.52 2.52 0 0 0-1 .19 2.67 2.67 0 0 0-.76.51 3.58 3.58 0 0 0-.56.75 4.55 4.55 0 0 0-.37.88h.84a8.09 8.09 0 0 0 1.52-.11 3.2 3.2 0 0 0 1-.3 1.19 1.19 0 0 0 .51-.44 1 1 0 0 0 .2-.52z" id="path867" fill="#e67825"/><path class="a756f1db-694d-42e4-a819-932be39db06c" d="M119.13 85.2a.59.59 0 0 1 0 .13v.11c-.2.55-.41 1.12-.65 1.7-.24.58-.51 1.15-.8 1.72-.29.57-.62 1.13-1 1.68a18.34 18.34 0 0 1-1.17 1.61.32.32 0 0 1-.1.1.24.24 0 0 1-.11.06.32.32 0 0 1-.14 0h-.41a.39.39 0 0 1-.14 0 .12.12 0 0 1-.08-.06.12.12 0 0 1 0-.09l-1.14-6.71a.38.38 0 0 1 0-.1v-.08a.14.14 0 0 1 0-.11.28.28 0 0 1 .08-.06h.67a.09.09 0 0 1 .06.06.12.12 0 0 1 0 .09l1 6q.5-.72.9-1.38c.26-.44.51-.9.74-1.37.23-.47.46-1 .67-1.5.21-.5.42-1.12.65-1.77a.19.19 0 0 1 0-.09.15.15 0 0 1 .09-.06h.81a.14.14 0 0 1 .07.12z" id="path869" fill="#e67825"/><path class="a756f1db-694d-42e4-a819-932be39db06c" d="M127 86.61a1.78 1.78 0 0 1-.24.92 1.93 1.93 0 0 1-.76.7 4.51 4.51 0 0 1-1.33.44 9.78 9.78 0 0 1-1.94.16h-.87a3.78 3.78 0 0 0-.08.56 4.7 4.7 0 0 0 0 .51 1.91 1.91 0 0 0 .4 1.3 1.74 1.74 0 0 0 1.33.46 4.42 4.42 0 0 0 .86-.08 5.52 5.52 0 0 0 .66-.15 4.31 4.31 0 0 0 .45-.16.73.73 0 0 1 .23-.07.09.09 0 0 1 .09 0 .21.21 0 0 1 0 .12.53.53 0 0 1 0 .12 1.24 1.24 0 0 1 0 .16.64.64 0 0 1-.06.16.38.38 0 0 1-.09.13 1 1 0 0 1-.32.18 3 3 0 0 1-.52.15 6.18 6.18 0 0 1-.67.12 5.63 5.63 0 0 1-.71 0 3.94 3.94 0 0 1-1.14-.15 2.16 2.16 0 0 1-.81-.47A1.84 1.84 0 0 1 121 91a3.31 3.31 0 0 1-.16-1.1 6.55 6.55 0 0 1 .09-1 6.07 6.07 0 0 1 .3-1.11 5.21 5.21 0 0 1 .52-1.06 3.85 3.85 0 0 1 .76-.89 3.53 3.53 0 0 1 1-.62 3.4 3.4 0 0 1 1.31-.23 3 3 0 0 1 1 .15 2.22 2.22 0 0 1 .68.4 1.58 1.58 0 0 1 .38.53 1.44 1.44 0 0 1 .12.54zm-1 .1a.82.82 0 0 0-.35-.69 1.5 1.5 0 0 0-1-.27 2.52 2.52 0 0 0-1 .19 2.67 2.67 0 0 0-.76.51 3.26 3.26 0 0 0-.56.75 5.31 5.31 0 0 0-.38.88h.85a8.16 8.16 0 0 0 1.52-.11 3.2 3.2 0 0 0 1-.3 1.19 1.19 0 0 0 .51-.44 1 1 0 0 0 .25-.52z" id="path871" fill="#e67825"/><path class="a756f1db-694d-42e4-a819-932be39db06c" d="M130.11 92.15a.36.36 0 0 1 0 .09l-.09.06h-.72a.17.17 0 0 1-.06-.06.14.14 0 0 1 0-.09l2.05-10.27a.3.3 0 0 1 0-.08.12.12 0 0 1 .08-.06h.63a.33.33 0 0 1 .13 0 .09.09 0 0 1 .06.06.11.11 0 0 1 0 .08z" id="path873" fill="#e67825"/><path class="a756f1db-694d-42e4-a819-932be39db06c" d="M140.4 87.53a6.65 6.65 0 0 1-.1 1.16 5.62 5.62 0 0 1-.33 1.13 5 5 0 0 1-.54 1 3.74 3.74 0 0 1-1.75 1.39 3.38 3.38 0 0 1-1.21.2 3.57 3.57 0 0 1-1.21-.17 2.12 2.12 0 0 1-.82-.51 2 2 0 0 1-.47-.81 3.5 3.5 0 0 1-.15-1.07 6.48 6.48 0 0 1 .11-1.15 6.1 6.1 0 0 1 .32-1.13 5.57 5.57 0 0 1 .55-1 3.78 3.78 0 0 1 .76-.83 3.57 3.57 0 0 1 1-.56 3.38 3.38 0 0 1 1.21-.2 3.6 3.6 0 0 1 1.21.17 2.2 2.2 0 0 1 .82.51 2.07 2.07 0 0 1 .47.8 3.91 3.91 0 0 1 .13 1.07zm-1 0a2.86 2.86 0 0 0-.09-.75 1.42 1.42 0 0 0-.3-.57 1.5 1.5 0 0 0-.54-.36 2.49 2.49 0 0 0-.82-.12 2.42 2.42 0 0 0-.91.17 2.65 2.65 0 0 0-.73.46 3.45 3.45 0 0 0-.56.69 5.08 5.08 0 0 0-.4.85 6.14 6.14 0 0 0-.23.94 6.22 6.22 0 0 0-.08 1 2.86 2.86 0 0 0 .09.75 1.44 1.44 0 0 0 .31.57 1.42 1.42 0 0 0 .54.36 2.43 2.43 0 0 0 .81.12 2.33 2.33 0 0 0 1.65-.64 3.45 3.45 0 0 0 .56-.69 5.08 5.08 0 0 0 .4-.85 5.75 5.75 0 0 0 .23-.93 6.2 6.2 0 0 0 .11-.96z" id="path875" fill="#e67825"/><path class="a756f1db-694d-42e4-a819-932be39db06c" d="M149.39 87.39a7.14 7.14 0 0 1-.08 1 6.48 6.48 0 0 1-.26 1.1 6.88 6.88 0 0 1-.45 1.1 4.18 4.18 0 0 1-.68 1 3.23 3.23 0 0 1-.92.68 2.71 2.71 0 0 1-1.2.25 2.64 2.64 0 0 1-.65-.07 2.16 2.16 0 0 1-.54-.2 2.77 2.77 0 0 1-.45-.31 3.41 3.41 0 0 1-.38-.38l-.68 3.42a.13.13 0 0 1 0 .08.19.19 0 0 1-.1-.06.49.49 0 0 1-.14 0h-.44a.35.35 0 0 1-.13 0 .12.12 0 0 1-.07-.07.11.11 0 0 1 0-.08l1.93-9.63a.19.19 0 0 1 .11-.15.9.9 0 0 1 .34 0h.3a.09.09 0 0 1 .06.06.22.22 0 0 1 0 .09l-.29 1.41a2.14 2.14 0 0 1 .36-.55 3.33 3.33 0 0 1 .62-.55 3.89 3.89 0 0 1 .81-.43 2.5 2.5 0 0 1 .89-.16 2.08 2.08 0 0 1 1 .19 1.67 1.67 0 0 1 .63.51 2.09 2.09 0 0 1 .35.77 4.67 4.67 0 0 1 .06.98zm-1 0a2.87 2.87 0 0 0-.07-.67 1.67 1.67 0 0 0-.2-.53 1 1 0 0 0-.38-.35 1.19 1.19 0 0 0-.56-.13 2 2 0 0 0-.92.25 3.48 3.48 0 0 0-.87.69 4.67 4.67 0 0 0-.71 1.06 5 5 0 0 0-.46 1.35l-.22 1.42a3.17 3.17 0 0 0 .87.88 1.85 1.85 0 0 0 1 .3 1.53 1.53 0 0 0 .82-.22 2.45 2.45 0 0 0 .65-.56 3.69 3.69 0 0 0 .48-.8 5.85 5.85 0 0 0 .34-.91 6.76 6.76 0 0 0 .2-.93 6.19 6.19 0 0 0 .07-.81z" id="path877" fill="#e67825"/><path class="a756f1db-694d-42e4-a819-932be39db06c" d="M152.67 92.15a.36.36 0 0 1 0 .09.28.28 0 0 1-.08.06h-.72a.17.17 0 0 1-.06-.06.14.14 0 0 1 0-.09l1.37-6.89a.16.16 0 0 1 0-.09l.09-.06a.39.39 0 0 1 .14 0h.45a.4.4 0 0 1 .13 0s.05 0 .05.06a.28.28 0 0 1 0 .09zm2-9.21a1.6 1.6 0 0 1-.08.3.67.67 0 0 1-.14.19.54.54 0 0 1-.2.1 1.26 1.26 0 0 1-.3 0 1.17 1.17 0 0 1-.29 0 .37.37 0 0 1-.16-.1.38.38 0 0 1 0-.19 1.89 1.89 0 0 1 0-.3 1.1 1.1 0 0 1 .09-.29.7.7 0 0 1 .13-.19.39.39 0 0 1 .21-.11 1.17 1.17 0 0 1 .29 0 1 1 0 0 1 .28 0 .24.24 0 0 1 .16.11.29.29 0 0 1 .06.19 1.68 1.68 0 0 1-.07.29z" id="path879" fill="#e67825"/><path class="a756f1db-694d-42e4-a819-932be39db06c" d="M162.69 86.78a4.41 4.41 0 0 1 0 .52 5.34 5.34 0 0 1-.09.53l-.86 4.32a.36.36 0 0 1 0 .09l-.08.06h-.72a.17.17 0 0 1-.06-.06.14.14 0 0 1 0-.09l.86-4.32c0-.18.06-.35.08-.51.02-.16 0-.29 0-.41a1.38 1.38 0 0 0-.23-.85.84.84 0 0 0-.76-.32 1.9 1.9 0 0 0-.92.25 3.12 3.12 0 0 0-.86.7 4.69 4.69 0 0 0-.72 1.06 5.23 5.23 0 0 0-.45 1.35l-.61 3.05a.36.36 0 0 1 0 .09l-.08.06h-.72a.17.17 0 0 1-.06-.06.14.14 0 0 1 0-.09l1.38-6.89a.36.36 0 0 1 0-.09.28.28 0 0 1 .08-.06.39.39 0 0 1 .14 0h.5a.17.17 0 0 1 .06.06v.09l-.28 1.41a1.84 1.84 0 0 1 .35-.55 3.33 3.33 0 0 1 .62-.55 4.07 4.07 0 0 1 .8-.43 2.62 2.62 0 0 1 .92-.16 2 2 0 0 1 .83.15 1.43 1.43 0 0 1 .55.4 1.67 1.67 0 0 1 .29.58 2.46 2.46 0 0 1 .04.67z" id="path881" fill="#e67825"/><path class="a756f1db-694d-42e4-a819-932be39db06c" d="M170.54 92.84a2.94 2.94 0 0 1-.37 1 2.16 2.16 0 0 1-.64.7 2.77 2.77 0 0 1-.92.42 4.19 4.19 0 0 1-1.16.14 4.57 4.57 0 0 1-1.14-.13 2.86 2.86 0 0 1-.83-.33.53.53 0 0 1-.15-.15.34.34 0 0 1 0-.18v-.11a.69.69 0 0 1 0-.13.56.56 0 0 1 0-.12.37.37 0 0 1 .05-.11.32.32 0 0 1 .09-.08.2.2 0 0 1 .11 0 .45.45 0 0 1 .23.09 3.19 3.19 0 0 0 .38.2 3.37 3.37 0 0 0 .57.2 3.46 3.46 0 0 0 .85.09 3 3 0 0 0 .77-.09 1.66 1.66 0 0 0 .6-.28 1.39 1.39 0 0 0 .43-.47 2 2 0 0 0 .24-.67c.1-.53.2-1 .29-1.32l.23-.79a1.89 1.89 0 0 1-.38.59 3.6 3.6 0 0 1-.64.58 3.89 3.89 0 0 1-.81.43 2.5 2.5 0 0 1-.89.16 2.22 2.22 0 0 1-1-.18 1.77 1.77 0 0 1-.63-.51 2.09 2.09 0 0 1-.35-.77 4.69 4.69 0 0 1-.1-1 7.14 7.14 0 0 1 .08-1 7.15 7.15 0 0 1 .72-2.19 3.88 3.88 0 0 1 .68-1 3.1 3.1 0 0 1 .92-.68A2.7 2.7 0 0 1 169 85a2.41 2.41 0 0 1 1.19.27 3.4 3.4 0 0 1 .87.75l.16-.74a.2.2 0 0 1 .13-.15.87.87 0 0 1 .33 0h.31s.05 0 .05.06a.28.28 0 0 1 0 .09zm.3-5.91a3.17 3.17 0 0 0-.87-.88 1.85 1.85 0 0 0-1-.3 1.56 1.56 0 0 0-.83.22 2.27 2.27 0 0 0-.64.56 3.72 3.72 0 0 0-.49.8 6.38 6.38 0 0 0-.34.92 7.92 7.92 0 0 0-.19.92 6 6 0 0 0-.06.8 2.87 2.87 0 0 0 .07.67 1.4 1.4 0 0 0 .21.53 1.06 1.06 0 0 0 .37.36 1.19 1.19 0 0 0 .56.13 2 2 0 0 0 .92-.25 3.48 3.48 0 0 0 .87-.69 4.9 4.9 0 0 0 .71-1.06 5.65 5.65 0 0 0 .46-1.35z" id="path883" fill="#e67825"/><path class="a756f1db-694d-42e4-a819-932be39db06c" d="M185.2 85.2a.59.59 0 0 1 0 .13.76.76 0 0 0 0 .11c-.2.55-.41 1.12-.65 1.7-.24.58-.51 1.15-.8 1.72-.29.57-.62 1.13-1 1.68a18.34 18.34 0 0 1-1.17 1.61.47.47 0 0 1-.1.1.24.24 0 0 1-.11.06.32.32 0 0 1-.14 0h-.41a.39.39 0 0 1-.14 0 .12.12 0 0 1-.08-.06.19.19 0 0 1 0-.09l-1.13-6.71a.38.38 0 0 1 0-.1v-.08a.18.18 0 0 1 0-.11l.08-.06H180.12a.33.33 0 0 1 .13 0 .09.09 0 0 1 .07.06.12.12 0 0 1 0 .09l1 6q.5-.72.9-1.38c.26-.44.51-.9.74-1.37.23-.47.45-1 .67-1.5.22-.5.42-1.12.65-1.77a.19.19 0 0 1 0-.09.15.15 0 0 1 .09-.06H185.2a.14.14 0 0 1 0 .12z" id="path885" fill="#e67825"/><path class="a756f1db-694d-42e4-a819-932be39db06c" d="M187.74 92.15a.36.36 0 0 1 0 .09.28.28 0 0 1-.08.06h-.72a.17.17 0 0 1-.06-.06.14.14 0 0 1 0-.09l1.37-6.89a.16.16 0 0 1 0-.09l.09-.06a.39.39 0 0 1 .14 0H189.06v.06a.28.28 0 0 1 0 .09zm2-9.21a1.6 1.6 0 0 1-.08.3.67.67 0 0 1-.14.19.54.54 0 0 1-.2.1 1.26 1.26 0 0 1-.3 0 1.17 1.17 0 0 1-.29 0 .37.37 0 0 1-.16-.1.38.38 0 0 1-.05-.19 1.89 1.89 0 0 1 0-.3 1.1 1.1 0 0 1 .09-.29.53.53 0 0 1 .13-.19.4.4 0 0 1 .2-.11 1.32 1.32 0 0 1 .3 0 1 1 0 0 1 .28 0 .24.24 0 0 1 .16.11.29.29 0 0 1 .06.19 1.68 1.68 0 0 1-.02.29z" id="path887" fill="#e67825"/><path class="a756f1db-694d-42e4-a819-932be39db06c" d="M196.37 85.68a1.15 1.15 0 0 1 0 .16.55.55 0 0 1-.06.18.53.53 0 0 1-.08.15.15.15 0 0 1-.11.06.4.4 0 0 1-.21-.07 3.22 3.22 0 0 0-.29-.17 2.67 2.67 0 0 0-.44-.18 2.18 2.18 0 0 0-.61-.07 1.69 1.69 0 0 0-.66.11 1.27 1.27 0 0 0-.49.3 1.26 1.26 0 0 0-.39.91.78.78 0 0 0 .21.56 1.89 1.89 0 0 0 .51.4l.68.33a4 4 0 0 1 .67.38 2.18 2.18 0 0 1 .52.53 1.38 1.38 0 0 1 .21.78 2.18 2.18 0 0 1-.21 1 2.12 2.12 0 0 1-.58.76 2.6 2.6 0 0 1-.9.49 3.7 3.7 0 0 1-1.18.18 4.65 4.65 0 0 1-.66-.05c-.2 0-.39-.09-.56-.14a2.91 2.91 0 0 1-.43-.19 1.44 1.44 0 0 1-.28-.21.47.47 0 0 1-.09-.12.33.33 0 0 1 0-.15.62.62 0 0 1 0-.13.31.31 0 0 1 0-.13.5.5 0 0 1 0-.13.37.37 0 0 1 .05-.11.19.19 0 0 1 .07-.08.09.09 0 0 1 .07 0 .41.41 0 0 1 .22.11 2.83 2.83 0 0 0 .34.23 2.21 2.21 0 0 0 .53.23 2.28 2.28 0 0 0 .79.11 2.53 2.53 0 0 0 .82-.12 1.77 1.77 0 0 0 .56-.31 1.23 1.23 0 0 0 .33-.46 1.29 1.29 0 0 0 .11-.55.84.84 0 0 0-.2-.57 2.17 2.17 0 0 0-.52-.4l-.68-.33a4 4 0 0 1-.67-.38 2 2 0 0 1-.52-.52 1.39 1.39 0 0 1-.2-.79 2.1 2.1 0 0 1 .72-1.61 2.43 2.43 0 0 1 .82-.46 3.15 3.15 0 0 1 1-.16 3 3 0 0 1 .52 0 3.09 3.09 0 0 1 .48.11 1.89 1.89 0 0 1 .38.16.78.78 0 0 1 .26.17.29.29 0 0 1 .15.19z" id="path889" fill="#e67825"/><path class="a756f1db-694d-42e4-a819-932be39db06c" d="M199.44 92.15a.41.41 0 0 1-.05.09.18.18 0 0 1-.08.06h-.72a.17.17 0 0 1-.06-.06.14.14 0 0 1 0-.09l1.37-6.89v-.09l.09-.06h.59a.4.4 0 0 1 .13 0 .17.17 0 0 1 .06.06v.09zm2-9.21a1.6 1.6 0 0 1-.08.3.52.52 0 0 1-.14.19.54.54 0 0 1-.2.1 1.26 1.26 0 0 1-.3 0 1.09 1.09 0 0 1-.28 0 .28.28 0 0 1-.16-.1.39.39 0 0 1-.06-.19 1.89 1.89 0 0 1 0-.3c0-.11.06-.21.09-.29a.7.7 0 0 1 .13-.19.43.43 0 0 1 .21-.11 1.23 1.23 0 0 1 .29 0 1.17 1.17 0 0 1 .29 0 .26.26 0 0 1 .16.11.36.36 0 0 1 .05.19 1.68 1.68 0 0 1-.03.29z" id="path891" fill="#e67825"/><path class="a756f1db-694d-42e4-a819-932be39db06c" d="M209.73 87.53a6.69 6.69 0 0 1-.11 1.16 6.33 6.33 0 0 1-.32 1.13 5.57 5.57 0 0 1-.55 1 3.76 3.76 0 0 1-.76.83 3.68 3.68 0 0 1-1 .56 3.34 3.34 0 0 1-1.21.2 3.64 3.64 0 0 1-1.21-.17 2.2 2.2 0 0 1-.82-.51 2 2 0 0 1-.46-.81 3.5 3.5 0 0 1-.15-1.07 5.67 5.67 0 0 1 .11-1.15 5.42 5.42 0 0 1 .32-1.13 5 5 0 0 1 .54-1 3.82 3.82 0 0 1 .77-.83 3.43 3.43 0 0 1 1-.56 3.3 3.3 0 0 1 1.21-.2 3.54 3.54 0 0 1 1.2.17 2 2 0 0 1 .82.51 2 2 0 0 1 .47.8 3.55 3.55 0 0 1 .15 1.07zm-1 0a2.86 2.86 0 0 0-.09-.75 1.42 1.42 0 0 0-.3-.57 1.46 1.46 0 0 0-.55-.36 2.64 2.64 0 0 0-1.72 0 2.51 2.51 0 0 0-.73.46 3.18 3.18 0 0 0-.57.69 4.36 4.36 0 0 0-.39.85 5.19 5.19 0 0 0-.24.94 6.2 6.2 0 0 0-.07 1 2.86 2.86 0 0 0 .09.75 1.42 1.42 0 0 0 .3.57 1.46 1.46 0 0 0 .55.36 2.64 2.64 0 0 0 1.72 0 2.34 2.34 0 0 0 .73-.47 3.18 3.18 0 0 0 .57-.69 5 5 0 0 0 .39-.85 4.86 4.86 0 0 0 .23-.93 6.22 6.22 0 0 0 .12-.96z" id="path893" fill="#e67825"/><path class="a756f1db-694d-42e4-a819-932be39db06c" d="M218.45 86.78a4.41 4.41 0 0 1 0 .52 5.34 5.34 0 0 1-.09.53l-.86 4.32a.36.36 0 0 1 0 .09l-.08.06h-.72a.17.17 0 0 1-.06-.06.14.14 0 0 1 0-.09l.86-4.32c0-.18.06-.35.08-.51.02-.16 0-.29 0-.41a1.38 1.38 0 0 0-.23-.85.84.84 0 0 0-.76-.32 1.9 1.9 0 0 0-.92.25 3.12 3.12 0 0 0-.86.7 4.69 4.69 0 0 0-.72 1.06 5.23 5.23 0 0 0-.45 1.35l-.6 3.05-.05.09a.18.18 0 0 1-.08.06h-.72a.17.17 0 0 1-.06-.06.14.14 0 0 1 0-.09l1.39-6.89a.16.16 0 0 1 0-.09.28.28 0 0 1 .08-.06.39.39 0 0 1 .14 0h.38a.28.28 0 0 1 .12 0 .17.17 0 0 1 .06.06.27.27 0 0 1 0 .09l-.3 1.41a1.84 1.84 0 0 1 .35-.55 3.33 3.33 0 0 1 .62-.55 4.07 4.07 0 0 1 .8-.43 2.66 2.66 0 0 1 .92-.16 2 2 0 0 1 .83.15 1.43 1.43 0 0 1 .55.4 1.67 1.67 0 0 1 .29.58 2.46 2.46 0 0 1 .09.67z" id="path895" fill="#e67825"/><path class="a756f1db-694d-42e4-a819-932be39db06c" d="M226.07 85.68a1 1 0 0 1 0 .16c0 .06 0 .13-.06.18a1 1 0 0 1-.09.15.14.14 0 0 1-.1.06.4.4 0 0 1-.21-.07l-.3-.17a2.53 2.53 0 0 0-.43-.18 2.25 2.25 0 0 0-.62-.07 1.73 1.73 0 0 0-.66.11 1.31 1.31 0 0 0-.48.3 1.25 1.25 0 0 0-.3.42 1.41 1.41 0 0 0-.09.49.77.77 0 0 0 .2.56 1.94 1.94 0 0 0 .52.4l.67.33a4.09 4.09 0 0 1 .68.38 2.18 2.18 0 0 1 .52.53 1.46 1.46 0 0 1 .2.78 2.32 2.32 0 0 1-.2 1 2.37 2.37 0 0 1-.58.76 2.56 2.56 0 0 1-.91.49 3.59 3.59 0 0 1-1.17.18 4.43 4.43 0 0 1-.66-.05 5.72 5.72 0 0 1-.56-.14 3.05 3.05 0 0 1-.44-.19 1.84 1.84 0 0 1-.28-.21.47.47 0 0 1-.09-.12.61.61 0 0 1 0-.15v-.26-.13l.06-.11a.28.28 0 0 1 .06-.08.11.11 0 0 1 .07 0 .4.4 0 0 1 .23.11 2 2 0 0 0 .33.23 2.4 2.4 0 0 0 .53.23 2.34 2.34 0 0 0 .8.11 2.47 2.47 0 0 0 .81-.12 1.72 1.72 0 0 0 .57-.31 1.23 1.23 0 0 0 .33-.46 1.46 1.46 0 0 0 .11-.55.8.8 0 0 0-.21-.57 2.17 2.17 0 0 0-.52-.4l-.67-.33a4.09 4.09 0 0 1-.68-.38A1.94 1.94 0 0 1 222 88a1.39 1.39 0 0 1-.21-.79 2 2 0 0 1 .19-.9 2.32 2.32 0 0 1 .53-.71 2.53 2.53 0 0 1 .82-.46 3.19 3.19 0 0 1 1-.16 3.08 3.08 0 0 1 .53 0 3 3 0 0 1 .47.11 1.76 1.76 0 0 1 .39.16.84.84 0 0 1 .25.17.26.26 0 0 1 .1.26z" id="path897" fill="#e67825"/></g></g></svg>
