<svg width="252.81" height="252.16" xmlns="http://www.w3.org/2000/svg"><path d="M.645 206.56v-45.6h4.78c3.831 0 4.817.043 4.961.217.133.16.18 10.888.179 40.585-.001 22.203.016 40.387.04 40.41.04.041 198.16.117 220.16.085l11.48-.017v-40.389c0-36.213.025-40.414.246-40.636.213-.212.958-.248 5.28-.25l5.033-.005v91.2H.644v-45.6zm77.76 8.56v-1.2h-2.4v-2.4h-2.4v-2.4h-7.2v-2.4h-2.4v-16.8h2.4v-2.4h12v-2.4h19.2v-2.4h2.4v-2.4h2.4v-2.4h2.4v-2.4h2.4v-2.4h2.4v-2.4h43.2v2.4h2.4v2.4h2.4v2.4h2.4v2.4h2.4v2.4h2.4v2.4h14.4v2.4h7.2v2.4h2.4v7.2h-2.4v2.4h2.4v7.2h-2.4v2.4h-12v2.4h-9.6v2.4h-2.4v2.4h-9.6v-2.4h-2.4v-2.4h-60v2.4h-2.4v2.4h-9.6zm9.6-2.4v-1.2h2.4v-9.6h2.4v2.4h4.8v-16.8h2.4v-2.4h2.4v4.8h-2.4v14.4h24v-9.6h2.4v9.6h16.8v-2.4h2.4v2.4h2.4v-2.4h2.4v9.6h2.4v2.4h9.6v-2.4h2.4v-9.6h2.4v2.4h9.6v2.4h9.6v-4.8h-4.8v-2.4h2.4v-2.4h2.4v-7.2h-7.2v-2.4h-19.2v-2.4h2.4v-2.4h-2.4v-2.4h-2.4v-2.4h-2.4v-2.4h-2.4v-2.4h-43.2v2.4h-2.4v2.4h-2.4v2.4h-2.4v2.4h-2.4v2.4h-2.4v2.4h-19.2v2.4h-12v4.8h2.4v7.2h7.2v9.6h2.4v2.4h9.6zm-7.2-2.4v-1.2h-2.4v-4.8h2.4v-2.4h4.8v2.4h2.4v4.8h-2.4v2.4h-4.8zm74.4 0v-1.2h-2.4v-4.8h2.4v-2.4h4.8v2.4h2.4v4.8h-2.4v2.4h-4.8zm21.6-7.2v-1.2h4.8v2.4h-4.8zm-100.8-2.4v-1.2h2.4v-2.4h9.6v2.4h2.4v2.4h-2.4v-2.4h-9.6v2.4h-2.4zm69.6 0v-1.2h2.4v-2.4h2.4v-7.2h-21.6v4.8h-2.4v-4.8h-19.2v2.4h-4.8v-2.4h2.4v-4.8h-2.4v-2.4h2.4v-2.4h2.4v-2.4h2.4v-2.4h36v2.4h2.4v2.4h2.4v2.4h2.4v2.4h2.4v2.4h4.8v2.4h-7.2v7.2h9.6v2.4h2.4v2.4h-2.4v-2.4h-9.6v2.4h-2.4v-2.4h-2.4v2.4h-2.4zm7.2-2.4v-1.2h-2.4v2.4h2.4zm-28.8-15.6v-4.8h-14.4v2.4h-2.4v7.2h16.8zm4.8 0v-4.8h-2.4v9.6h2.4zm24 3.6v-1.2h-2.4v-2.4h-2.4v-2.4h-2.4v-2.4h-14.4v9.6h21.6zm-4.8 21.6v-1.2h-55.2v2.4h55.2zm26.4 0v-1.2h-7.2v2.4h7.2zm-103.2-2.4v-1.2h-4.8v2.4h4.8zm-68.64-66.96v-2.08H.005v-4.32h5.44v4h7.2v-7.84H2.565v-4.16H0l.085-8.4 2.48-.093v-3.987h10.4v3.986l2.48.094v4.32l-2.6.044-2.6.044V116h-4.8v8h10.08v3.986l2.48.094v8.32l-2.48.093v4.147H2.565zm17.07 1.977c-.06-.06-.11-6.58-.11-14.488v-14.377l5.36.088.09 3.907 2.47.093.09 4.08h2.22l.09-4.08 2.31-.094.09-3.906 5.362-.088-.041 14.444-.041 14.444h-5.28l-.084-12.24h-2.076v4h-2.88v-4h-2.236l-.084 12.24-2.57.044c-1.413.024-2.619-.006-2.68-.067zm19.68 0c-.06-.06-.11-4.742-.11-10.404V119.84h2.55l.09-4.08 2.48-.093v-3.987h7.84v3.987l2.48.093.09 4.08h2.552l-.082 20.72h-5.28l-.085-8.08h-7.03l-.085 8.08-2.65.044c-1.457.024-2.699-.006-2.76-.067zM51.845 124v-4h-2.4v-4h-2.24v4h-2.4v8h7.04zm6.99 16.537c-.06-.06-.11-6.578-.11-14.484V111.68h15.52v3.987l2.48.093v12.48l-5.04.088v3.832h2.56v3.987l2.48.093v4.32l-3.88.043-3.88.043v-4.166h-2.56v-4h-2.234l-.043 4.04-.043 4.04-2.57.044c-1.412.024-2.618-.006-2.68-.067zM68.966 126v-2h2.4v-8h-7.2v12h4.8zm15.68 2.32V116h-5.12v-4.32h15.52V116h-5.12v24.64h-5.28zm32.748 12.213c-.059-.059-.107-6.575-.107-14.48V111.68h12.96v3.987l2.48.093.09 4.08h2.554l-.084 12.56-2.48.093v3.987h-2.56v4.16h-6.373c-3.506 0-6.422-.048-6.48-.107zm10.133-6.373v-2h2.4V120h-2.4v-4h-4.8v20.16h4.8zm9.39 6.377c-.06-.06-.11-6.578-.11-14.484V111.68h15.52v3.987l2.48.093v12.48l-5.04.088v3.832h2.56v3.987l2.48.093v4.32l-3.88.043-3.88.043v-4.166h-2.56v-4h-2.235l-.042 4.04-.043 4.04-2.57.044c-1.413.024-2.619-.006-2.68-.067zM147.046 126v-2h2.4v-8h-7.2v12h4.8zm10.47 14.431c-.044-.115-.06-1.105-.035-2.2l.046-1.991 5.04-.088v-20.144l-5.04-.088-.045-2.12-.045-2.12h15.85V116h-5.28v20.16h4.96v4.48h-7.686c-6.174 0-7.7-.042-7.765-.21zm26.17-1.865v-2.086h-2.56v-3.987l-2.48-.093-.09-4.08h-2.55v-16.648l5.36.088.084 12.24h2.556v4h2.24v-4h2.397l.083-12.24 5.36-.088v16.648h-2.55l-.09 4.08-2.48.093v3.987h-2.39l-.09 4.08-2.8.092zm13.03 1.865c-.044-.115-.06-1.105-.035-2.2l.046-1.991 5.04-.088v-20.144l-5.04-.088-.045-2.12-.045-2.12h15.85V116h-5.28v20.16h4.96v4.48h-7.686c-6.174 0-7.7-.042-7.765-.21zm18.405.013c-.042-.112-.059-6.612-.036-14.444l.041-14.24 5.36-.088v3.994l2.48.094.045 2.033.045 2.033 1.235.047 1.235.047.09 4.08h2.066l.084-12.24 5.362-.088-.041 14.444-.04 14.444h-5.28l-.09-4.08h-2.39v-3.987l-2.48-.093-.09-4.08h-2.227l-.084 12.24-2.603.044c-1.995.034-2.622-.004-2.682-.16zm24.565-1.882v-2.082h-2.56v-3.987l-2.48-.093-.083-12.56h2.554l.09-4.08 2.48-.093v-3.987h12.96V116h-10.24v4h-2.4v12.16h2.4v4h4.8v-7.84h-2.4V124h7.842l-.083 16.56-12.88.084zM.646 45.28V0h252.16v90.564l-10.48-.085-.04-39.96-.04-39.96H10.566v39.808c0 30.748-.044 39.852-.192 40-.141.141-1.465.192-4.96.192H.646zm86.28 22.6l.04-10.84h4.96l.16 9.12 6.956.086.042-4.603.042-4.603h5.12v21.6l-5.2.088V69.6h-7.04v9.12h-5.122zm26.52 1.728v-9.12l-4.88-.088v-3.36h14.88v3.36l-4.717.088-.083 18.151-5.2.088zm14.44-1.728l.04-10.84h4.96l.043 4.6.042 4.6h2.224l.091-3.12h2.56l.092 3.12h2.064l.085-9.2h5.12v21.6l-5.2.088v-3.034l-2.32-.094-.092-2.96h-2.056l-.092 2.96-2.48.093v3.027h-5.123zm20.48 0l.04-10.84h4.96l.16 9.12 1.989.095.091-3.135 2.469-.093.046-1.474.045-1.473 2.309-.094.091-2.946h5.12v3.36l-2.468.093-.046 1.473-.046 1.474-2.308.094-.092 2.946-2.32.094v2.706h2.4v3.04h2.388l.092 2.96 2.491.093-.09 3.267-7.6.085v-3.032l-2.48-.093-.093-2.96h-2.068v6.08h-5.122zm-79.49 1.51c-.046-.118-.062-.893-.036-1.722l.046-1.508h12.48v3.36l-6.204.042c-5.06.034-6.22.002-6.287-.172zm102.4 0c-.046-.118-.062-.893-.036-1.722l.046-1.508h12.48v3.36l-6.204.042c-5.06.034-6.22.002-6.287-.172z" fill="#00336f"/></svg>
